<svg width="800" height="600" viewBox="0 0 800 600" fill="none" xmlns="http://www.w3.org/2000/svg">
  <rect width="800" height="600" fill="#020617"/>
  <rect x="40" y="40" width="720" height="520" rx="24" fill="#0F172A" stroke="#1E293B" stroke-width="2"/>
  
  <!-- Magazine Header -->
  <rect x="80" y="80" width="200" height="40" rx="4" fill="#10B981" fill-opacity="0.2"/>
  <rect x="80" y="80" width="100" height="40" rx="4" fill="#10B981"/>
  
  <!-- Title -->
  <rect x="80" y="150" width="400" height="60" rx="8" fill="white" fill-opacity="0.9"/>
  <rect x="80" y="230" width="300" height="60" rx="8" fill="white" fill-opacity="0.9"/>
  
  <!-- Image Placeholder -->
  <rect x="520" y="150" width="200" height="280" rx="16" fill="#1E293B"/>
  <path d="M560 240L590 270L630 210" stroke="#10B981" stroke-width="8" stroke-linecap="round" stroke-linejoin="round"/>
  
  <!-- Text Lines -->
  <rect x="80" y="330" width="400" height="12" rx="6" fill="#475569"/>
  <rect x="80" y="360" width="400" height="12" rx="6" fill="#475569"/>
  <rect x="80" y="390" width="350" height="12" rx="6" fill="#475569"/>
  <rect x="80" y="420" width="380" height="12" rx="6" fill="#475569"/>
  
  <!-- Rating -->
  <circle cx="100" cy="500" r="30" fill="#10B981"/>
  <text x="100" y="510" font-family="Arial" font-size="24" font-weight="bold" fill="#020617" text-anchor="middle">9.4</text>
</svg>
