<svg width="600" height="300" viewBox="0 0 600 300" fill="none" xmlns="http://www.w3.org/2000/svg">
  <rect width="600" height="300" rx="32" fill="#020617" stroke="#10B981" stroke-width="2" stroke-opacity="0.3"/>
  
  <!-- Waveform -->
  <rect x="40" y="140" width="4" height="20" rx="2" fill="#10B981"/>
  <rect x="50" y="130" width="4" height="40" rx="2" fill="#10B981"/>
  <rect x="60" y="120" width="4" height="60" rx="2" fill="#10B981"/>
  <rect x="70" y="135" width="4" height="30" rx="2" fill="#10B981"/>
  <rect x="80" y="110" width="4" height="80" rx="2" fill="#10B981"/>
  <rect x="90" y="125" width="4" height="50" rx="2" fill="#10B981"/>
  <rect x="100" y="140" width="4" height="20" rx="2" fill="#10B981"/>
  <rect x="110" y="130" width="4" height="40" rx="2" fill="#10B981"/>
  <rect x="120" y="120" width="4" height="60" rx="2" fill="#10B981"/>
  
  <!-- Player Controls -->
  <circle cx="300" cy="150" r="40" fill="#10B981"/>
  <path d="M290 130L320 150L290 170V130Z" fill="#020617"/>
  
  <!-- Text -->
  <rect x="40" y="40" width="120" height="10" rx="5" fill="#10B981" fill-opacity="0.5"/>
  <rect x="40" y="60" width="200" height="20" rx="10" fill="white"/>
  
  <!-- Progress Bar -->
  <rect x="40" y="240" width="520" height="6" rx="3" fill="#1E293B"/>
  <rect x="40" y="240" width="200" height="6" rx="3" fill="#10B981"/>
</svg>
